<?xml version="1.0" encoding="UTF-8"?> <svg xmlns="http://www.w3.org/2000/svg" xmlns:xlink="http://www.w3.org/1999/xlink" width="255.077" height="268.328" viewBox="0 0 255.077 268.328"><defs><linearGradient id="linear-gradient" y1="0.5" x2="1" y2="0.5" gradientUnits="objectBoundingBox"><stop offset="0" stop-color="#6a86b6"></stop><stop offset="1" stop-color="#6b87b7"></stop></linearGradient><linearGradient id="linear-gradient-2" x1="0.008" y1="0.501" x2="1.001" y2="0.501" xlink:href="#linear-gradient"></linearGradient></defs><g id="Group_39393" data-name="Group 39393" transform="translate(-84.53 -30.671)"><g id="Group_39379" data-name="Group 39379" transform="translate(84.53 30.671)"><g id="Group_39370" data-name="Group 39370" transform="translate(0 118.737)"><path id="Path_61736" data-name="Path 61736" d="M239.4,216.465a11.82,11.82,0,0,1-10.665,0L86.963,134.615c-2.933-1.692-2.933-4.463,0-6.156l91.1-52.6a11.836,11.836,0,0,1,10.665,0L330.5,157.711c2.933,1.692,2.933,4.463,0,6.159Z" transform="translate(-84.133 -74.591)" fill="#d6e5ff"></path><g id="Group_39368" data-name="Group 39368" transform="translate(44.911 5.41)"><g id="Group_39363" data-name="Group 39363"><path id="Path_61737" data-name="Path 61737" d="M237.423,185.884a2.371,2.371,0,0,1-2.133,0l-133.708-77.2a.652.652,0,0,1,0-1.233l53.012-30.606a2.354,2.354,0,0,1,2.133,0l133.708,77.2a.65.65,0,0,1,0,1.23Z" transform="translate(-101.142 -76.592)" fill="#c2d1eb"></path><path id="Path_61738" data-name="Path 61738" d="M102.293,109.1l52.3-30.2a2.371,2.371,0,0,1,2.133,0l133,76.786.711-.411a.65.65,0,0,0,0-1.23l-133.708-77.2a2.371,2.371,0,0,0-2.133,0l-53.012,30.606a.652.652,0,0,0,0,1.233Z" transform="translate(-101.142 -76.591)" fill="#b8c7e1"></path></g><g id="Group_39367" data-name="Group 39367" transform="translate(11.011 6.112)"><path id="Path_61739" data-name="Path 61739" d="M245.778,148.875,124.923,79.1a2.268,2.268,0,0,0-2.052,0l-1.544.892a.625.625,0,0,0,0,1.184l120.856,69.776a2.285,2.285,0,0,0,2.052,0l1.544-.892A.626.626,0,0,0,245.778,148.875Z" transform="translate(-78.491 -78.853)" fill="#393b65"></path><g id="Group_39366" data-name="Group 39366" transform="translate(0 3.449)"><g id="Group_39364" data-name="Group 39364" transform="translate(0 0.511)"><path id="Path_61740" data-name="Path 61740" d="M117.176,85.652l7.21,4.161a2.262,2.262,0,0,0,2.049,0l.795-.46,5.174-2.985.795-.46a.625.625,0,0,0,0-1.184l-7.21-4.163a2.279,2.279,0,0,0-2.049,0l-.8.46-5.172,2.987-.795.46A.625.625,0,0,0,117.176,85.652Z" transform="translate(-85.562 -80.318)" fill="#252747"></path><path id="Path_61741" data-name="Path 61741" d="M132.86,102.4l.795-.46,5.174-2.985.795-.46a.625.625,0,0,0,0-1.184L118.3,85a2.262,2.262,0,0,0-2.049,0l-.8.457-5.172,2.987-.8.46a.626.626,0,0,0,0,1.184L130.808,102.4A2.268,2.268,0,0,0,132.86,102.4Z" transform="translate(-98.664 -72.754)" fill="#252747"></path><path id="Path_61742" data-name="Path 61742" d="M128.17,99.7l.795-.46,5.174-2.985.795-.46a.625.625,0,0,0,0-1.184l-7.21-4.163a2.268,2.268,0,0,0-2.052,0l-.795.46L119.7,93.892l-.795.46a.626.626,0,0,0,0,1.184l7.21,4.161A2.268,2.268,0,0,0,128.17,99.7Z" transform="translate(-82.609 -63.486)" fill="#252747"></path><path id="Path_61743" data-name="Path 61743" d="M149.187,111.83l.8-.457,5.172-2.987.8-.46a.626.626,0,0,0,0-1.184l-7.21-4.163a2.285,2.285,0,0,0-2.052,0l-.795.46-5.174,2.987-.795.46a.625.625,0,0,0,0,1.184l7.21,4.161A2.262,2.262,0,0,0,149.187,111.83Z" transform="translate(-46.805 -42.813)" fill="#252747"></path><path id="Path_61744" data-name="Path 61744" d="M153.391,114.257l.795-.457,5.174-2.987.795-.46a.625.625,0,0,0,0-1.184l-7.21-4.163a2.279,2.279,0,0,0-2.049,0l-.795.46-5.174,2.987-.795.46a.625.625,0,0,0,0,1.184l7.21,4.161A2.262,2.262,0,0,0,153.391,114.257Z" transform="translate(-39.644 -38.679)" fill="#252747"></path><path id="Path_61745" data-name="Path 61745" d="M162.218,111.658a2.285,2.285,0,0,0,2.052,0l.795-.46,5.174-2.987.795-.46a.625.625,0,0,0,0-1.184l-7.21-4.163a2.285,2.285,0,0,0-2.052,0l-.795.46-5.174,2.987-.795.46a.626.626,0,0,0,0,1.184Z" transform="translate(-21.114 -43.109)" fill="#252747"></path><path id="Path_61746" data-name="Path 61746" d="M172.976,116.57l-15.826-9.138a2.279,2.279,0,0,0-2.049,0l-.8.46-5.172,2.987-.8.46a.626.626,0,0,0,0,1.184l15.826,9.135a2.262,2.262,0,0,0,2.049,0l.8-.46,5.172-2.987.8-.457A.626.626,0,0,0,172.976,116.57Z" transform="translate(-32.483 -34.544)" fill="#252747"></path><path id="Path_61747" data-name="Path 61747" d="M137.4,87.152l-7.21-4.163a2.285,2.285,0,0,0-2.052,0l-.795.46-5.172,2.987-.8.46a.626.626,0,0,0,0,1.184l7.21,4.161a2.268,2.268,0,0,0,2.052,0l.795-.457,5.174-2.987.795-.46A.625.625,0,0,0,137.4,87.152Z" transform="translate(-78.401 -76.184)" fill="#252747"></path><path id="Path_61748" data-name="Path 61748" d="M131.929,92.872a2.268,2.268,0,0,0-2.052,0l-.795.46-5.174,2.987-.795.46a.625.625,0,0,0,0,1.184l7.21,4.161a2.268,2.268,0,0,0,2.052,0l.795-.46,5.172-2.987.8-.457a.626.626,0,0,0,0-1.184Z" transform="translate(-75.449 -59.351)" fill="#252747"></path><path id="Path_61749" data-name="Path 61749" d="M136.13,95.3a2.262,2.262,0,0,0-2.049,0l-.795.46-5.174,2.987-.795.46a.624.624,0,0,0,0,1.181l7.21,4.163a2.262,2.262,0,0,0,2.049,0l.795-.457,5.174-2.987.795-.46a.625.625,0,0,0,0-1.184Z" transform="translate(-68.288 -55.217)" fill="#252747"></path><path id="Path_61750" data-name="Path 61750" d="M140.335,97.724a2.279,2.279,0,0,0-2.049,0l-.8.46-5.172,2.987-.8.46a.626.626,0,0,0,0,1.184l7.21,4.161a2.268,2.268,0,0,0,2.052,0l.795-.457,5.174-2.987.795-.46a.625.625,0,0,0,0-1.184Z" transform="translate(-61.127 -51.081)" fill="#252747"></path><path id="Path_61751" data-name="Path 61751" d="M144.539,100.151a2.285,2.285,0,0,0-2.052,0l-.795.46-5.174,2.987-.795.46a.626.626,0,0,0,0,1.184l7.21,4.161a2.268,2.268,0,0,0,2.052,0l.795-.457,5.174-2.987.795-.46a.626.626,0,0,0,0-1.184Z" transform="translate(-53.965 -46.947)" fill="#252747"></path><path id="Path_61752" data-name="Path 61752" d="M113.33,87.872l14.542,8.394a2.262,2.262,0,0,0,2.049,0l.795-.46,5.174-2.985.795-.46a.625.625,0,0,0,0-1.184l-14.539-8.4a2.285,2.285,0,0,0-2.052,0l-.795.46-5.174,2.987-.795.46A.625.625,0,0,0,113.33,87.872Z" transform="translate(-92.114 -76.536)" fill="#252747"></path><path id="Path_61753" data-name="Path 61753" d="M173.9,112.664,162.71,106.2a2.268,2.268,0,0,0-2.052,0l-.795.46-5.174,2.987-.795.457a.625.625,0,0,0,0,1.184l11.192,6.464a2.285,2.285,0,0,0,2.052,0l.795-.46,5.174-2.987.795-.46A.625.625,0,0,0,173.9,112.664Z" transform="translate(-23.015 -36.642)" fill="#252747"></path><path id="Path_61754" data-name="Path 61754" d="M127.028,86.784l-.795.46-5.174,2.987-.795.46a.625.625,0,0,0,0,1.184l7.21,4.163a2.279,2.279,0,0,0,2.049,0l.8-.46,5.172-2.987.8-.46a.626.626,0,0,0,0-1.184l-7.21-4.163A2.285,2.285,0,0,0,127.028,86.784Z" transform="translate(-80.302 -69.717)" fill="#252747"></path><path id="Path_61755" data-name="Path 61755" d="M131.232,89.214l-.8.457-5.172,2.987-.795.46a.625.625,0,0,0,0,1.184l7.21,4.163a2.279,2.279,0,0,0,2.049,0l.795-.46,5.174-2.987.795-.46a.625.625,0,0,0,0-1.184l-7.21-4.163A2.271,2.271,0,0,0,131.232,89.214Z" transform="translate(-73.141 -65.583)" fill="#252747"></path><path id="Path_61756" data-name="Path 61756" d="M135.434,91.641l-.795.46-5.172,2.985-.8.46a.626.626,0,0,0,0,1.184l7.21,4.163a2.285,2.285,0,0,0,2.052,0l.795-.46,5.174-2.987.795-.46a.625.625,0,0,0,0-1.184l-7.21-4.161A2.268,2.268,0,0,0,135.434,91.641Z" transform="translate(-65.98 -61.448)" fill="#252747"></path><path id="Path_61757" data-name="Path 61757" d="M139.639,94.068l-.795.46-5.174,2.985-.795.46a.625.625,0,0,0,0,1.184l7.21,4.163a2.285,2.285,0,0,0,2.052,0l.795-.46,5.174-2.987.795-.46a.626.626,0,0,0,0-1.184l-7.21-4.161A2.268,2.268,0,0,0,139.639,94.068Z" transform="translate(-58.82 -57.314)" fill="#252747"></path><path id="Path_61758" data-name="Path 61758" d="M143.843,96.495l-.795.46-5.174,2.985-.795.46a.625.625,0,0,0,0,1.184l7.21,4.163a2.279,2.279,0,0,0,2.049,0l.8-.46,5.172-2.987.795-.46a.626.626,0,0,0,0-1.184l-7.21-4.161A2.268,2.268,0,0,0,143.843,96.495Z" transform="translate(-51.658 -53.18)" fill="#252747"></path><path id="Path_61759" data-name="Path 61759" d="M148.047,98.922l-.8.46-5.172,2.985-.795.46a.625.625,0,0,0,0,1.184l7.21,4.163a2.279,2.279,0,0,0,2.049,0l.795-.46,5.174-2.987.795-.457a.625.625,0,0,0,0-1.184l-7.21-4.163A2.262,2.262,0,0,0,148.047,98.922Z" transform="translate(-44.497 -49.045)" fill="#252747"></path><path id="Path_61760" data-name="Path 61760" d="M152.249,101.349l-.795.46-5.172,2.987-.8.457a.626.626,0,0,0,0,1.184l7.21,4.163a2.268,2.268,0,0,0,2.052,0l.795-.46,5.174-2.987.795-.457a.625.625,0,0,0,0-1.184l-7.21-4.163A2.268,2.268,0,0,0,152.249,101.349Z" transform="translate(-37.336 -44.911)" fill="#252747"></path><path id="Path_61761" data-name="Path 61761" d="M156.454,103.776l-.795.46-5.174,2.987-.795.457a.625.625,0,0,0,0,1.184l7.21,4.163a2.268,2.268,0,0,0,2.052,0l.795-.46,5.172-2.987.8-.457a.628.628,0,0,0,0-1.187l-7.21-4.161A2.268,2.268,0,0,0,156.454,103.776Z" transform="translate(-30.176 -40.777)" fill="#252747"></path><path id="Path_61762" data-name="Path 61762" d="M141.609,89.579l-7.21-4.163a2.285,2.285,0,0,0-2.052,0l-.795.46-5.174,2.987-.795.46a.625.625,0,0,0,0,1.184l7.21,4.161a2.268,2.268,0,0,0,2.052,0l.795-.457,5.174-2.987.795-.46A.626.626,0,0,0,141.609,89.579Z" transform="translate(-71.241 -72.049)" fill="#252747"></path><path id="Path_61763" data-name="Path 61763" d="M145.81,92.006l-7.21-4.163a2.279,2.279,0,0,0-2.049,0l-.795.46-5.174,2.987-.795.46a.625.625,0,0,0,0,1.184L137,97.1a2.279,2.279,0,0,0,2.049,0l.8-.46,5.172-2.987.8-.46A.626.626,0,0,0,145.81,92.006Z" transform="translate(-64.08 -67.915)" fill="#252747"></path><path id="Path_61764" data-name="Path 61764" d="M150.014,94.433l-7.21-4.163a2.279,2.279,0,0,0-2.049,0l-.8.46-5.172,2.987-.795.46a.625.625,0,0,0,0,1.184l7.21,4.163a2.279,2.279,0,0,0,2.049,0l.795-.46,5.174-2.987.795-.46A.625.625,0,0,0,150.014,94.433Z" transform="translate(-56.919 -63.781)" fill="#252747"></path><path id="Path_61765" data-name="Path 61765" d="M154.219,96.86l-7.21-4.163a2.285,2.285,0,0,0-2.052,0l-.795.46-5.174,2.987-.795.46a.626.626,0,0,0,0,1.184l7.21,4.163a2.285,2.285,0,0,0,2.052,0l.795-.46,5.174-2.987.795-.46A.625.625,0,0,0,154.219,96.86Z" transform="translate(-49.758 -59.646)" fill="#252747"></path><path id="Path_61766" data-name="Path 61766" d="M158.424,99.287l-7.21-4.163a2.285,2.285,0,0,0-2.052,0l-.795.46-5.174,2.987-.795.46a.625.625,0,0,0,0,1.184l7.21,4.163a2.285,2.285,0,0,0,2.052,0l.795-.46,5.174-2.987.795-.46A.626.626,0,0,0,158.424,99.287Z" transform="translate(-42.598 -55.512)" fill="#252747"></path><path id="Path_61767" data-name="Path 61767" d="M162.625,101.714l-7.21-4.163a2.279,2.279,0,0,0-2.049,0l-.795.46L147.4,101l-.795.46a.625.625,0,0,0,0,1.184l7.21,4.163a2.279,2.279,0,0,0,2.049,0l.8-.46,5.172-2.987.795-.46A.625.625,0,0,0,162.625,101.714Z" transform="translate(-35.436 -51.378)" fill="#252747"></path><path id="Path_61768" data-name="Path 61768" d="M166.83,104.141l-7.21-4.163a2.279,2.279,0,0,0-2.049,0l-.8.46-5.172,2.987-.8.46a.626.626,0,0,0,0,1.184l7.207,4.163a2.285,2.285,0,0,0,2.052,0l.795-.46,5.174-2.987.795-.46A.625.625,0,0,0,166.83,104.141Z" transform="translate(-28.275 -47.244)" fill="#252747"></path><path id="Path_61769" data-name="Path 61769" d="M175.239,108.995l-7.21-4.163a2.285,2.285,0,0,0-2.052,0l-.795.46-5.174,2.987-.795.46a.625.625,0,0,0,0,1.184l7.21,4.163a2.285,2.285,0,0,0,2.052,0l.795-.46,5.172-2.987.8-.46A.626.626,0,0,0,175.239,108.995Z" transform="translate(-13.954 -38.975)" fill="#252747"></path><path id="Path_61770" data-name="Path 61770" d="M121.665,91.387l-7.21-4.163a2.268,2.268,0,0,0-2.052,0l-.795.46-5.174,2.985-.795.46a.625.625,0,0,0,0,1.184l7.21,4.163a2.268,2.268,0,0,0,2.052,0l.795-.46,5.172-2.987.8-.457A.626.626,0,0,0,121.665,91.387Z" transform="translate(-105.215 -68.973)" fill="#252747"></path><path id="Path_61771" data-name="Path 61771" d="M125.866,93.811l-7.21-4.161a2.262,2.262,0,0,0-2.049,0l-.795.46L110.638,93.1l-.795.457a.625.625,0,0,0,0,1.184l7.21,4.163a2.262,2.262,0,0,0,2.049,0l.8-.46,5.172-2.987.795-.457A.627.627,0,0,0,125.866,93.811Z" transform="translate(-98.054 -64.838)" fill="#252747"></path><path id="Path_61772" data-name="Path 61772" d="M130.071,96.241l-7.21-4.163a2.268,2.268,0,0,0-2.052,0l-.795.46-5.172,2.987-.8.457a.626.626,0,0,0,0,1.184l7.21,4.163a2.268,2.268,0,0,0,2.052,0l.795-.46,5.174-2.987.795-.457A.625.625,0,0,0,130.071,96.241Z" transform="translate(-90.893 -60.704)" fill="#252747"></path><path id="Path_61773" data-name="Path 61773" d="M179.734,124.913,127.065,94.5a2.268,2.268,0,0,0-2.052,0l-.795.46-5.174,2.985-.795.46a.626.626,0,0,0,0,1.184L170.918,130a2.268,2.268,0,0,0,2.052,0l.795-.46,5.174-2.985.795-.46A.626.626,0,0,0,179.734,124.913Z" transform="translate(-83.732 -56.57)" fill="#252747"></path><path id="Path_61774" data-name="Path 61774" d="M155.3,110.8l-7.21-4.163a2.268,2.268,0,0,0-2.052,0l-.795.46-5.174,2.987-.795.46a.625.625,0,0,0,0,1.184l7.21,4.161a2.262,2.262,0,0,0,2.049,0l.8-.46,5.172-2.985.8-.46A.626.626,0,0,0,155.3,110.8Z" transform="translate(-47.928 -35.898)" fill="#252747"></path><path id="Path_61775" data-name="Path 61775" d="M159.5,113.229l-7.21-4.163a2.279,2.279,0,0,0-2.049,0l-.8.46-5.172,2.987-.795.46a.625.625,0,0,0,0,1.184l7.21,4.161a2.262,2.262,0,0,0,2.049,0l.795-.457,5.174-2.987.795-.46A.625.625,0,0,0,159.5,113.229Z" transform="translate(-40.766 -31.762)" fill="#252747"></path><path id="Path_61776" data-name="Path 61776" d="M163.7,115.656l-7.21-4.163a2.285,2.285,0,0,0-2.052,0l-.795.46-5.172,2.987-.8.46a.626.626,0,0,0,0,1.184l7.21,4.161a2.268,2.268,0,0,0,2.052,0l.795-.457,5.174-2.987.795-.46A.625.625,0,0,0,163.7,115.656Z" transform="translate(-33.605 -27.628)" fill="#252747"></path></g><g id="Group_39365" data-name="Group 39365" transform="translate(0.032)"><path id="Path_61777" data-name="Path 61777" d="M117.187,85.463l7.21,4.163a2.279,2.279,0,0,0,2.049,0l.8-.46,5.172-2.987.8-.46a.626.626,0,0,0,0-1.184L126,80.372a2.285,2.285,0,0,0-2.052,0l-.795.46-5.174,2.987-.795.46A.625.625,0,0,0,117.187,85.463Z" transform="translate(-85.575 -80.129)" fill="#393b65"></path><path id="Path_61778" data-name="Path 61778" d="M132.87,102.217l.8-.46,5.172-2.987.8-.46a.626.626,0,0,0,0-1.184L118.312,84.815a2.268,2.268,0,0,0-2.052,0l-.795.46-5.174,2.987-.795.457a.625.625,0,0,0,0,1.184l21.325,12.314A2.279,2.279,0,0,0,132.87,102.217Z" transform="translate(-98.677 -72.565)" fill="#393b65"></path><path id="Path_61779" data-name="Path 61779" d="M128.181,99.508l.795-.46,5.174-2.987.795-.46a.625.625,0,0,0,0-1.184l-7.21-4.163a2.279,2.279,0,0,0-2.049,0l-.8.46L119.716,93.7l-.8.46a.626.626,0,0,0,0,1.184l7.213,4.163A2.279,2.279,0,0,0,128.181,99.508Z" transform="translate(-82.622 -63.295)" fill="#393b65"></path><path id="Path_61780" data-name="Path 61780" d="M149.2,111.643l.795-.46,5.174-2.987.795-.46a.625.625,0,0,0,0-1.184l-7.21-4.163a2.285,2.285,0,0,0-2.052,0l-.795.46-5.174,2.987-.795.46a.626.626,0,0,0,0,1.184l7.21,4.163A2.285,2.285,0,0,0,149.2,111.643Z" transform="translate(-46.817 -42.624)" fill="#393b65"></path><path id="Path_61781" data-name="Path 61781" d="M153.405,114.07l.795-.46,5.172-2.987.8-.46a.626.626,0,0,0,0-1.184l-7.21-4.163a2.285,2.285,0,0,0-2.052,0l-.795.46-5.174,2.987-.795.46a.625.625,0,0,0,0,1.184l7.21,4.163A2.285,2.285,0,0,0,153.405,114.07Z" transform="translate(-39.657 -38.49)" fill="#393b65"></path><path id="Path_61782" data-name="Path 61782" d="M162.231,111.469a2.279,2.279,0,0,0,2.049,0l.795-.46,5.174-2.987.795-.46a.624.624,0,0,0,0-1.181l-7.21-4.163a2.262,2.262,0,0,0-2.049,0l-.8.46-5.172,2.985-.795.46a.625.625,0,0,0,0,1.184Z" transform="translate(-21.127 -42.92)" fill="#393b65"></path><path id="Path_61783" data-name="Path 61783" d="M172.986,116.381l-15.826-9.135a2.271,2.271,0,0,0-2.049,0l-.795.46-5.174,2.987-.795.46a.625.625,0,0,0,0,1.184l15.823,9.138a2.285,2.285,0,0,0,2.052,0l.795-.46,5.174-2.987.795-.46A.625.625,0,0,0,172.986,116.381Z" transform="translate(-32.496 -34.355)" fill="#393b65"></path><path id="Path_61784" data-name="Path 61784" d="M137.414,86.962,130.2,82.8a2.27,2.27,0,0,0-2.049,0l-.8.46-5.172,2.987-.795.46a.625.625,0,0,0,0,1.184l7.21,4.163a2.279,2.279,0,0,0,2.049,0l.795-.46,5.174-2.987.795-.46A.625.625,0,0,0,137.414,86.962Z" transform="translate(-78.414 -75.994)" fill="#393b65"></path><path id="Path_61785" data-name="Path 61785" d="M131.939,92.681a2.285,2.285,0,0,0-2.052,0l-.795.46-5.174,2.987-.795.46a.626.626,0,0,0,0,1.184l7.21,4.163a2.285,2.285,0,0,0,2.052,0l.795-.46,5.174-2.987.795-.46a.625.625,0,0,0,0-1.184Z" transform="translate(-75.461 -59.161)" fill="#393b65"></path><path id="Path_61786" data-name="Path 61786" d="M136.144,95.108a2.285,2.285,0,0,0-2.052,0l-.795.46-5.174,2.987-.795.46a.625.625,0,0,0,0,1.184l7.21,4.163a2.285,2.285,0,0,0,2.052,0l.795-.46,5.174-2.987.795-.46a.626.626,0,0,0,0-1.184Z" transform="translate(-68.301 -55.027)" fill="#393b65"></path><path id="Path_61787" data-name="Path 61787" d="M140.345,97.535a2.279,2.279,0,0,0-2.049,0l-.795.46-5.174,2.987-.795.46a.625.625,0,0,0,0,1.184l7.21,4.163a2.279,2.279,0,0,0,2.049,0l.8-.46,5.172-2.987.795-.46a.625.625,0,0,0,0-1.184Z" transform="translate(-61.139 -50.892)" fill="#393b65"></path><path id="Path_61788" data-name="Path 61788" d="M144.55,99.962a2.279,2.279,0,0,0-2.049,0l-.8.46-5.172,2.987-.8.46a.626.626,0,0,0,0,1.184l7.21,4.163a2.285,2.285,0,0,0,2.052,0l.795-.46,5.174-2.987.795-.46a.625.625,0,0,0,0-1.184Z" transform="translate(-53.978 -46.758)" fill="#393b65"></path><path id="Path_61789" data-name="Path 61789" d="M113.34,87.683l14.542,8.4a2.285,2.285,0,0,0,2.052,0l.795-.46,5.172-2.987.8-.46a.626.626,0,0,0,0-1.184l-14.542-8.394a2.268,2.268,0,0,0-2.052,0l-.795.46-5.174,2.985-.795.46A.626.626,0,0,0,113.34,87.683Z" transform="translate(-92.126 -76.347)" fill="#393b65"></path><path id="Path_61790" data-name="Path 61790" d="M173.913,112.476l-11.192-6.464a2.285,2.285,0,0,0-2.052,0l-.795.46-5.174,2.987-.795.46a.626.626,0,0,0,0,1.184l11.2,6.461a2.262,2.262,0,0,0,2.049,0l.8-.46,5.172-2.985.795-.46A.625.625,0,0,0,173.913,112.476Z" transform="translate(-23.027 -36.452)" fill="#393b65"></path><path id="Path_61791" data-name="Path 61791" d="M127.038,86.6l-.795.46-5.174,2.987-.795.46a.624.624,0,0,0,0,1.181l7.21,4.163a2.268,2.268,0,0,0,2.052,0l.795-.46,5.174-2.985.795-.46a.626.626,0,0,0,0-1.184L129.09,86.6A2.268,2.268,0,0,0,127.038,86.6Z" transform="translate(-80.314 -69.528)" fill="#393b65"></path><path id="Path_61792" data-name="Path 61792" d="M131.243,89.025l-.795.46-5.174,2.987-.795.46a.625.625,0,0,0,0,1.184l7.21,4.161a2.262,2.262,0,0,0,2.049,0l.8-.46,5.172-2.985.8-.46a.626.626,0,0,0,0-1.184l-7.21-4.163A2.268,2.268,0,0,0,131.243,89.025Z" transform="translate(-73.154 -65.394)" fill="#393b65"></path><path id="Path_61793" data-name="Path 61793" d="M135.447,91.452l-.795.46L129.478,94.9l-.795.46a.625.625,0,0,0,0,1.184l7.21,4.161a2.262,2.262,0,0,0,2.049,0l.795-.46,5.174-2.985.795-.46a.625.625,0,0,0,0-1.184l-7.21-4.163A2.262,2.262,0,0,0,135.447,91.452Z" transform="translate(-65.992 -61.259)" fill="#393b65"></path><path id="Path_61794" data-name="Path 61794" d="M139.649,93.879l-.795.46-5.172,2.987-.8.46a.625.625,0,0,0,0,1.181l7.21,4.163a2.268,2.268,0,0,0,2.052,0l.795-.457,5.174-2.987.795-.46a.625.625,0,0,0,0-1.184l-7.21-4.163A2.268,2.268,0,0,0,139.649,93.879Z" transform="translate(-58.831 -57.125)" fill="#393b65"></path><path id="Path_61795" data-name="Path 61795" d="M143.853,96.3l-.795.46-5.174,2.987-.795.46a.626.626,0,0,0,0,1.184l7.21,4.161a2.268,2.268,0,0,0,2.052,0l.795-.457,5.174-2.987.795-.46a.626.626,0,0,0,0-1.184l-7.21-4.163A2.285,2.285,0,0,0,143.853,96.3Z" transform="translate(-51.671 -52.989)" fill="#393b65"></path><path id="Path_61796" data-name="Path 61796" d="M148.058,98.731l-.795.46-5.174,2.987-.795.46a.625.625,0,0,0,0,1.184l7.21,4.161a2.262,2.262,0,0,0,2.049,0l.8-.457,5.172-2.987.8-.46a.626.626,0,0,0,0-1.184l-7.21-4.163A2.285,2.285,0,0,0,148.058,98.731Z" transform="translate(-44.51 -48.855)" fill="#393b65"></path><path id="Path_61797" data-name="Path 61797" d="M152.262,101.158l-.8.46-5.172,2.987-.795.46a.625.625,0,0,0,0,1.184l7.21,4.161a2.262,2.262,0,0,0,2.049,0l.795-.457,5.174-2.987.795-.46a.626.626,0,0,0,0-1.184l-7.21-4.163A2.279,2.279,0,0,0,152.262,101.158Z" transform="translate(-37.349 -44.721)" fill="#393b65"></path><path id="Path_61798" data-name="Path 61798" d="M156.464,103.585l-.795.46-5.172,2.987-.8.46a.626.626,0,0,0,0,1.184l7.21,4.161a2.268,2.268,0,0,0,2.052,0l.795-.457,5.174-2.987.795-.46a.625.625,0,0,0,0-1.184l-7.21-4.163A2.285,2.285,0,0,0,156.464,103.585Z" transform="translate(-30.188 -40.587)" fill="#393b65"></path><path id="Path_61799" data-name="Path 61799" d="M141.619,89.389l-7.21-4.161a2.276,2.276,0,0,0-2.052,0l-.795.46-5.172,2.987-.8.46a.626.626,0,0,0,0,1.184l7.21,4.163a2.285,2.285,0,0,0,2.052,0l.795-.46,5.174-2.987.795-.46A.625.625,0,0,0,141.619,89.389Z" transform="translate(-71.253 -71.86)" fill="#393b65"></path><path id="Path_61800" data-name="Path 61800" d="M145.824,91.816l-7.21-4.161a2.268,2.268,0,0,0-2.052,0l-.795.457L130.593,91.1l-.795.46a.625.625,0,0,0,0,1.184l7.21,4.163a2.285,2.285,0,0,0,2.052,0l.795-.46,5.174-2.987.795-.46A.626.626,0,0,0,145.824,91.816Z" transform="translate(-64.093 -67.726)" fill="#393b65"></path><path id="Path_61801" data-name="Path 61801" d="M150.025,94.243l-7.207-4.161a2.276,2.276,0,0,0-2.052,0l-.795.46L134.8,93.527l-.795.46a.625.625,0,0,0,0,1.184l7.21,4.163a2.279,2.279,0,0,0,2.049,0l.8-.46,5.172-2.987.8-.46A.626.626,0,0,0,150.025,94.243Z" transform="translate(-56.932 -63.592)" fill="#393b65"></path><path id="Path_61802" data-name="Path 61802" d="M154.229,96.67l-7.21-4.161a2.271,2.271,0,0,0-2.049,0l-.8.46L139,95.954l-.795.46a.625.625,0,0,0,0,1.184l7.21,4.163a2.279,2.279,0,0,0,2.049,0l.795-.46,5.174-2.987.795-.46A.625.625,0,0,0,154.229,96.67Z" transform="translate(-49.77 -59.457)" fill="#393b65"></path><path id="Path_61803" data-name="Path 61803" d="M158.434,99.1l-7.21-4.161a2.268,2.268,0,0,0-2.052,0l-.795.457-5.172,2.987-.8.46a.626.626,0,0,0,0,1.184l7.21,4.163a2.285,2.285,0,0,0,2.052,0l.795-.46,5.174-2.987.795-.46A.626.626,0,0,0,158.434,99.1Z" transform="translate(-42.609 -55.323)" fill="#393b65"></path><path id="Path_61804" data-name="Path 61804" d="M162.639,101.524l-7.21-4.161a2.268,2.268,0,0,0-2.052,0l-.795.46-5.174,2.985-.795.46a.626.626,0,0,0,0,1.184l7.21,4.163a2.276,2.276,0,0,0,2.052,0l.795-.46,5.174-2.987.795-.46A.626.626,0,0,0,162.639,101.524Z" transform="translate(-35.449 -51.188)" fill="#393b65"></path><path id="Path_61805" data-name="Path 61805" d="M166.84,103.951l-7.207-4.161a2.268,2.268,0,0,0-2.052,0l-.795.46-5.174,2.985-.795.46a.625.625,0,0,0,0,1.184l7.21,4.163a2.279,2.279,0,0,0,2.049,0l.8-.46,5.172-2.987.8-.46A.626.626,0,0,0,166.84,103.951Z" transform="translate(-28.288 -47.054)" fill="#393b65"></path><path id="Path_61806" data-name="Path 61806" d="M175.249,108.808l-7.21-4.163a2.268,2.268,0,0,0-2.052,0l-.795.46-5.172,2.985-.8.46a.626.626,0,0,0,0,1.184l7.21,4.163a2.276,2.276,0,0,0,2.052,0l.795-.46,5.174-2.987.795-.457A.626.626,0,0,0,175.249,108.808Z" transform="translate(-13.966 -38.785)" fill="#393b65"></path><path id="Path_61807" data-name="Path 61807" d="M121.675,91.2l-7.21-4.163a2.285,2.285,0,0,0-2.052,0l-.795.46-5.174,2.987-.795.46a.626.626,0,0,0,0,1.184l7.21,4.161a2.268,2.268,0,0,0,2.052,0l.795-.457,5.174-2.987.795-.46A.625.625,0,0,0,121.675,91.2Z" transform="translate(-105.227 -68.782)" fill="#393b65"></path><path id="Path_61808" data-name="Path 61808" d="M125.88,93.624l-7.21-4.163a2.285,2.285,0,0,0-2.052,0l-.795.46-5.174,2.987-.795.46a.625.625,0,0,0,0,1.184l7.21,4.161a2.268,2.268,0,0,0,2.052,0l.795-.457,5.172-2.987.8-.46A.626.626,0,0,0,125.88,93.624Z" transform="translate(-98.067 -64.648)" fill="#393b65"></path><path id="Path_61809" data-name="Path 61809" d="M130.081,96.051l-7.21-4.163a2.279,2.279,0,0,0-2.049,0l-.795.46-5.174,2.987-.795.46a.625.625,0,0,0,0,1.184l7.21,4.161a2.262,2.262,0,0,0,2.049,0l.8-.457,5.172-2.987.795-.46A.625.625,0,0,0,130.081,96.051Z" transform="translate(-90.906 -60.514)" fill="#393b65"></path><path id="Path_61810" data-name="Path 61810" d="M179.744,124.723,127.076,94.314a2.279,2.279,0,0,0-2.049,0l-.8.46-5.172,2.987-.8.46a.626.626,0,0,0,0,1.184l52.666,30.409a2.285,2.285,0,0,0,2.052,0l.795-.46,5.174-2.987.795-.46A.625.625,0,0,0,179.744,124.723Z" transform="translate(-83.744 -56.379)" fill="#393b65"></path><path id="Path_61811" data-name="Path 61811" d="M155.306,110.613l-7.21-4.163a2.285,2.285,0,0,0-2.052,0l-.795.46-5.174,2.987-.795.46a.626.626,0,0,0,0,1.184l7.21,4.163a2.285,2.285,0,0,0,2.052,0l.795-.46,5.174-2.987.795-.46A.626.626,0,0,0,155.306,110.613Z" transform="translate(-47.94 -35.708)" fill="#393b65"></path><path id="Path_61812" data-name="Path 61812" d="M159.51,113.04l-7.21-4.163a2.285,2.285,0,0,0-2.052,0l-.795.46-5.174,2.987-.795.46a.625.625,0,0,0,0,1.184l7.21,4.163a2.285,2.285,0,0,0,2.052,0l.795-.46,5.172-2.987.8-.46A.626.626,0,0,0,159.51,113.04Z" transform="translate(-40.779 -31.573)" fill="#393b65"></path><path id="Path_61813" data-name="Path 61813" d="M163.711,115.467,156.5,111.3a2.279,2.279,0,0,0-2.049,0l-.795.46-5.174,2.987-.795.46a.625.625,0,0,0,0,1.184l7.21,4.163a2.279,2.279,0,0,0,2.049,0l.8-.46,5.172-2.987.795-.46A.625.625,0,0,0,163.711,115.467Z" transform="translate(-33.618 -27.439)" fill="#393b65"></path></g></g></g></g><path id="Path_61814" data-name="Path 61814" d="M159.181,143.771a7.9,7.9,0,0,1-7.11,0l-45.656-26.359c-1.955-1.13-1.955-2.977,0-4.107L129.843,99.78a7.88,7.88,0,0,1,7.11,0l45.656,26.359c1.955,1.13,1.955,2.977,0,4.107Z" transform="translate(-49.747 -33.127)" fill="#eaf9ff"></path><g id="Group_39369" data-name="Group 39369" transform="translate(0 57.069)"><path id="Path_61815" data-name="Path 61815" d="M233.994,181.828l.008-.051a10.716,10.716,0,0,1-4.882-1.219L87.352,98.707a3.771,3.771,0,0,1-2.187-3l-.014,0-.622,6.031.03.016c-.141,1.211.554,2.452,2.152,3.374L228.479,186.97a10.972,10.972,0,0,0,5.515,1.252Z" transform="translate(-84.53 -95.701)" fill="#7e9acd"></path><path id="Path_61816" data-name="Path 61816" d="M236.708,109.566l-91.1,52.6a11.074,11.074,0,0,1-5.783,1.219l-.008.051v6.394a10.836,10.836,0,0,0,5.15-1.252l91.1-52.6a3.782,3.782,0,0,0,2.182-2.971l.019-.008.638-6.5A3.737,3.737,0,0,1,236.708,109.566Z" transform="translate(9.648 -77.309)" fill="url(#linear-gradient)"></path></g></g><path id="Path_61817" data-name="Path 61817" d="M176.473,106.473h0v0Z" transform="translate(72.09 98.455)" fill="url(#linear-gradient-2)"></path><g id="Group_39378" data-name="Group 39378" transform="translate(99.263)"><g id="Group_39372" data-name="Group 39372"><path id="Path_61818" data-name="Path 61818" d="M273.679,228.331c0,3.387-2.4,4.772-5.331,3.079L126.581,149.56a11.83,11.83,0,0,1-5.334-9.235V35.127c0-3.385,2.4-4.772,5.334-3.077L268.348,113.9a11.832,11.832,0,0,1,5.331,9.238Z" transform="translate(-121.247 -29.553)" fill="#1f1e46"></path><g id="Group_39371" data-name="Group 39371" transform="translate(2.125)"><path id="Path_61819" data-name="Path 61819" d="M177.12,64.692l-.032-.014a10.8,10.8,0,0,1,1.468,5.031V174.9a3.853,3.853,0,0,1-1.352,3.268l.019.024,2.9-1.511,0-.032c1.1-.492,1.814-1.711,1.814-3.536V67.922a10.893,10.893,0,0,0-1.557-5.231Z" transform="translate(-28.249 23.874)" fill="#0b0a32"></path><path id="Path_61820" data-name="Path 61820" d="M270.388,113.229,128.621,31.382c-1.571-.908-2.974-.908-3.952-.214l-.024-.014-2.612,1.409.016.022a4.084,4.084,0,0,1,3.193.584l141.767,81.847a11.041,11.041,0,0,1,3.863,4.207l.032.014,3.26-2A10.925,10.925,0,0,0,270.388,113.229Z" transform="translate(-122.033 -30.671)" fill="#3d3c64"></path></g></g><g id="Group_39377" data-name="Group 39377" transform="translate(6.935 11.783)"><path id="Path_61821" data-name="Path 61821" d="M124.478,136.2,123.812,35.03l137.9,79.615.666,101.171Z" transform="translate(-123.812 -35.03)" fill="#3d3b59"></path><g id="Group_39376" data-name="Group 39376" transform="translate(0.751 50.669)" opacity="0.025"><g id="Group_39373" data-name="Group 39373"><path id="Path_61822" data-name="Path 61822" d="M261.861,162.213l-.041-3.7V147.8l-.041-3.736v-10.1l-.043-9.687v-.535l-.122-41.217L211.534,53.772,124.7,103.905a5.628,5.628,0,0,0-.608.43L261.9,183.89v-6.445l-.041-4.147Z" transform="translate(-124.09 -53.772)" fill="#d6e5ff"></path><path id="Path_61823" data-name="Path 61823" d="M190.651,64.413,167.223,77.938c-1.955,1.127-1.955,2.977,0,4.1l23.515,13.577Z" transform="translate(-53.112 -35.645)" fill="#eaf9ff"></path></g><g id="Group_39375" data-name="Group 39375" transform="translate(23.323 30.536)"><g id="Group_39374" data-name="Group 39374" transform="translate(6.01)"><path id="Path_61824" data-name="Path 61824" d="M161.413,74.227l-.795.46-5.174,2.987-.795.457a.625.625,0,0,0,0,1.184l7.21,4.163a2.262,2.262,0,0,0,2.049,0l.8-.46,5.172-2.987.795-.46a.624.624,0,0,0,0-1.181l-7.21-4.163A2.262,2.262,0,0,0,161.413,74.227Z" transform="translate(-102.089 -49.883)" fill="#291d5a"></path><path id="Path_61825" data-name="Path 61825" d="M157.209,71.8l-.795.46-5.174,2.985-.795.46a.625.625,0,0,0,0,1.184l7.21,4.163a2.268,2.268,0,0,0,2.052,0l.795-.46,5.172-2.987.8-.457a.626.626,0,0,0,0-1.184l-7.21-4.163A2.268,2.268,0,0,0,157.209,71.8Z" transform="translate(-109.25 -54.017)" fill="#291d5a"></path><path id="Path_61826" data-name="Path 61826" d="M148.382,74.4a2.268,2.268,0,0,0-2.052,0l-.795.457-5.172,2.987-.8.46a.626.626,0,0,0,0,1.184l7.21,4.163a2.285,2.285,0,0,0,2.052,0l.795-.46L154.8,80.2l.795-.46a.625.625,0,0,0,0-1.184Z" transform="translate(-127.779 -49.586)" fill="#291d5a"></path><path id="Path_61827" data-name="Path 61827" d="M143.055,72.622l15.823,9.135a2.268,2.268,0,0,0,2.052,0l.795-.46L166.9,78.31l.795-.46a.625.625,0,0,0,0-1.184l-15.823-9.135a2.285,2.285,0,0,0-2.052,0l-.795.46-5.174,2.987-.795.46A.625.625,0,0,0,143.055,72.622Z" transform="translate(-121.839 -61.284)" fill="#291d5a"></path><path id="Path_61828" data-name="Path 61828" d="M178.913,93.879v7.8L173.206,98.4a.628.628,0,0,1,0-1.192l.781-.451Z" transform="translate(-70.488 -15.988)" fill="#291d5a"></path><path id="Path_61829" data-name="Path 61829" d="M181.78,84.8v7.759l-.289.165-.779.451a2.268,2.268,0,0,1-2.052,0l-7.186-4.147a.626.626,0,0,1,0-1.19l.781-.451,5.172-3,.781-.451a2.251,2.251,0,0,1,2.052,0Z" transform="translate(-73.437 -33.345)" fill="#291d5a"></path><path id="Path_61830" data-name="Path 61830" d="M174.47,90.758a2.268,2.268,0,0,0,2.052,0l.795-.46,5.172-2.985.8-.46a.626.626,0,0,0,0-1.184l-7.21-4.163a2.285,2.285,0,0,0-2.052,0l-.795.46-5.174,2.987-.795.46a.625.625,0,0,0,0,1.184Z" transform="translate(-80.607 -37.478)" fill="#291d5a"></path><path id="Path_61831" data-name="Path 61831" d="M170.265,88.332a2.268,2.268,0,0,0,2.052,0l.795-.46,5.174-2.985.795-.46a.625.625,0,0,0,0-1.184l-7.21-4.163a2.268,2.268,0,0,0-2.052,0l-.795.46-5.174,2.987-.795.46a.625.625,0,0,0,0,1.181Z" transform="translate(-87.767 -41.614)" fill="#291d5a"></path><path id="Path_61832" data-name="Path 61832" d="M166.061,85.9a2.268,2.268,0,0,0,2.052,0l.795-.46,5.174-2.985.795-.46a.625.625,0,0,0,0-1.184l-7.21-4.163a2.262,2.262,0,0,0-2.049,0l-.8.46L159.648,80.1l-.8.457a.626.626,0,0,0,0,1.184Z" transform="translate(-94.928 -45.748)" fill="#291d5a"></path><path id="Path_61833" data-name="Path 61833" d="M139.208,74.842l11.2,6.464a2.271,2.271,0,0,0,2.049,0l.8-.457,5.172-2.987.8-.46a.626.626,0,0,0,0-1.184l-11.2-6.464a2.285,2.285,0,0,0-2.052,0l-.795.46L140,73.2l-.795.46A.626.626,0,0,0,139.208,74.842Z" transform="translate(-128.389 -57.503)" fill="#291d5a"></path><path id="Path_61834" data-name="Path 61834" d="M176.984,90.751v4.228l-2.668-1.519a.625.625,0,0,1,0-1.189l.822-.451Z" transform="translate(-68.601 -21.316)" fill="#291d5a"></path><path id="Path_61835" data-name="Path 61835" d="M184.13,90.592v3.49l-3.982,2.3-.781.451a2.251,2.251,0,0,1-2.052,0l-7.224-4.144a.643.643,0,0,1,0-1.192l.819-.451,5.174-3,.779-.451a2.251,2.251,0,0,1,2.052,0Z" transform="translate(-75.746 -27.11)" fill="#291d5a"></path><path id="Path_61836" data-name="Path 61836" d="M175.166,94.418l.795-.46,5.174-2.987.795-.46a.625.625,0,0,0,0-1.184l-7.21-4.163a2.285,2.285,0,0,0-2.052,0l-.795.46L166.7,88.611l-.8.46a.626.626,0,0,0,0,1.184l7.21,4.163A2.285,2.285,0,0,0,175.166,94.418Z" transform="translate(-82.913 -31.247)" fill="#291d5a"></path><path id="Path_61837" data-name="Path 61837" d="M170.961,91.991l.795-.46,5.174-2.987.795-.46a.625.625,0,0,0,0-1.184l-7.21-4.163a2.279,2.279,0,0,0-2.049,0l-.8.46L162.5,86.184l-.795.46a.625.625,0,0,0,0,1.184l7.21,4.163A2.279,2.279,0,0,0,170.961,91.991Z" transform="translate(-90.074 -35.381)" fill="#291d5a"></path><path id="Path_61838" data-name="Path 61838" d="M166.757,89.562l.8-.457,5.172-2.987.8-.46a.626.626,0,0,0,0-1.184l-7.21-4.163a2.285,2.285,0,0,0-2.052,0l-.795.46-5.174,2.987-.795.46a.625.625,0,0,0,0,1.184l7.21,4.163A2.271,2.271,0,0,0,166.757,89.562Z" transform="translate(-97.236 -39.516)" fill="#291d5a"></path><path id="Path_61839" data-name="Path 61839" d="M162.556,87.137l.795-.46,5.174-2.987.795-.46a.626.626,0,0,0,0-1.184l-7.21-4.163a2.285,2.285,0,0,0-2.052,0l-.795.46-5.174,2.987-.795.46a.625.625,0,0,0,0,1.184l7.21,4.163A2.285,2.285,0,0,0,162.556,87.137Z" transform="translate(-104.397 -43.65)" fill="#291d5a"></path><path id="Path_61840" data-name="Path 61840" d="M158.351,84.71l.795-.46,5.174-2.987.795-.46a.625.625,0,0,0,0-1.184l-7.21-4.163a2.285,2.285,0,0,0-2.052,0l-.795.46L149.886,78.9l-.8.46a.626.626,0,0,0,0,1.184l7.21,4.163A2.285,2.285,0,0,0,158.351,84.71Z" transform="translate(-111.557 -47.784)" fill="#291d5a"></path><path id="Path_61841" data-name="Path 61841" d="M154.146,82.281l.795-.457,5.174-2.987.795-.46a.625.625,0,0,0,0-1.184l-7.21-4.163a2.279,2.279,0,0,0-2.049,0l-.795.46-5.174,2.987-.795.46a.625.625,0,0,0,0,1.184l7.21,4.163A2.271,2.271,0,0,0,154.146,82.281Z" transform="translate(-118.718 -51.919)" fill="#291d5a"></path><path id="Path_61842" data-name="Path 61842" d="M168.994,96.478l7.21,4.163a2.262,2.262,0,0,0,2.049,0l.795-.46,5.174-2.987.795-.46a.625.625,0,0,0,0-1.184l-7.21-4.161a2.262,2.262,0,0,0-2.049,0l-.8.46-5.172,2.987-.795.457A.625.625,0,0,0,168.994,96.478Z" transform="translate(-77.653 -20.646)" fill="#291d5a"></path><path id="Path_61843" data-name="Path 61843" d="M164.79,94.051,172,98.214a2.268,2.268,0,0,0,2.052,0l.795-.46,5.172-2.987.8-.46a.626.626,0,0,0,0-1.184l-7.21-4.161a2.268,2.268,0,0,0-2.052,0l-.795.46-5.174,2.985-.795.46A.625.625,0,0,0,164.79,94.051Z" transform="translate(-84.814 -24.78)" fill="#291d5a"></path><path id="Path_61844" data-name="Path 61844" d="M160.585,91.624l7.21,4.163a2.268,2.268,0,0,0,2.052,0l.795-.46,5.174-2.987.795-.457a.626.626,0,0,0,0-1.184l-7.21-4.163a2.268,2.268,0,0,0-2.052,0l-.795.457L161.38,89.98l-.795.46A.626.626,0,0,0,160.585,91.624Z" transform="translate(-91.974 -28.915)" fill="#291d5a"></path><path id="Path_61845" data-name="Path 61845" d="M156.381,89.2l7.21,4.163a2.285,2.285,0,0,0,2.052,0l.795-.46,5.174-2.987.795-.46a.625.625,0,0,0,0-1.184l-7.21-4.161a2.268,2.268,0,0,0-2.052,0l-.795.457-5.172,2.987-.8.46A.626.626,0,0,0,156.381,89.2Z" transform="translate(-99.136 -33.049)" fill="#291d5a"></path><path id="Path_61846" data-name="Path 61846" d="M152.179,86.77l7.21,4.163a2.279,2.279,0,0,0,2.049,0l.8-.46,5.172-2.987.795-.46a.625.625,0,0,0,0-1.184l-7.21-4.161a2.262,2.262,0,0,0-2.049,0l-.8.46-5.172,2.985-.795.46A.625.625,0,0,0,152.179,86.77Z" transform="translate(-106.297 -37.183)" fill="#291d5a"></path><path id="Path_61847" data-name="Path 61847" d="M147.975,84.343l7.21,4.163a2.285,2.285,0,0,0,2.052,0l.795-.46,5.172-2.987.8-.46a.626.626,0,0,0,0-1.184l-7.21-4.161a2.268,2.268,0,0,0-2.052,0l-.795.457L148.77,82.7l-.795.46A.625.625,0,0,0,147.975,84.343Z" transform="translate(-113.458 -41.318)" fill="#291d5a"></path><path id="Path_61848" data-name="Path 61848" d="M143.77,81.916l7.21,4.163a2.285,2.285,0,0,0,2.052,0l.795-.46L159,82.632l.795-.46a.626.626,0,0,0,0-1.184l-7.21-4.161a2.268,2.268,0,0,0-2.052,0l-.795.457-5.174,2.987-.795.46A.626.626,0,0,0,143.77,81.916Z" transform="translate(-120.618 -45.452)" fill="#291d5a"></path><path id="Path_61849" data-name="Path 61849" d="M135.364,77.062l7.21,4.163a2.279,2.279,0,0,0,2.049,0l.8-.46,5.172-2.987.795-.46a.625.625,0,0,0,0-1.184l-7.21-4.161a2.262,2.262,0,0,0-2.049,0l-.795.457-5.174,2.987-.795.46A.625.625,0,0,0,135.364,77.062Z" transform="translate(-134.94 -53.72)" fill="#291d5a"></path><path id="Path_61850" data-name="Path 61850" d="M202.145,102.316,159.49,77.684a.645.645,0,0,1,0-1.192l.822-.451,5.172-3,.781-.451a2.251,2.251,0,0,1,2.052,0l33.785,19.5Z" transform="translate(-93.802 -52.667)" fill="#291d5a"></path><path id="Path_61851" data-name="Path 61851" d="M155.308,75.257l7.21,4.161a2.262,2.262,0,0,0,2.049,0l.8-.46,5.172-2.987.8-.457a.626.626,0,0,0,0-1.184l-7.21-4.163a2.262,2.262,0,0,0-2.049,0l-.795.46L156.1,73.614l-.795.46A.625.625,0,0,0,155.308,75.257Z" transform="translate(-100.966 -56.799)" fill="#291d5a"></path><path id="Path_61852" data-name="Path 61852" d="M151.1,72.828l7.21,4.163a2.268,2.268,0,0,0,2.052,0l.795-.46,5.174-2.985.795-.46a.626.626,0,0,0,0-1.184l-7.21-4.163a2.268,2.268,0,0,0-2.052,0l-.795.46L151.9,71.184l-.795.46A.625.625,0,0,0,151.1,72.828Z" transform="translate(-108.128 -60.933)" fill="#291d5a"></path><path id="Path_61853" data-name="Path 61853" d="M146.9,70.4l7.21,4.163a2.268,2.268,0,0,0,2.052,0l.795-.46,5.174-2.985.795-.46a.625.625,0,0,0,0-1.184l-7.21-4.163a2.268,2.268,0,0,0-2.052,0l-.795.46L147.7,68.757l-.8.46A.626.626,0,0,0,146.9,70.4Z" transform="translate(-115.288 -65.067)" fill="#291d5a"></path></g><path id="Path_61854" data-name="Path 61854" d="M247.192,142.453,133.147,76.646a.628.628,0,0,1,0-1.192l1.563-.9a2.267,2.267,0,0,1,2.052,0l110.391,63.756Z" transform="translate(-132.717 -49.331)" fill="#513b77"></path><path id="Path_61855" data-name="Path 61855" d="M161.4,74.413l-.8.46-5.172,2.987-.8.46a.626.626,0,0,0,0,1.184l7.21,4.163a2.285,2.285,0,0,0,2.052,0l.795-.46,5.174-2.987.795-.46a.625.625,0,0,0,0-1.184l-7.21-4.161A2.27,2.27,0,0,0,161.4,74.413Z" transform="translate(-96.098 -49.561)" fill="#513b77"></path><path id="Path_61856" data-name="Path 61856" d="M157.2,71.986l-.795.46-5.174,2.987-.795.46a.625.625,0,0,0,0,1.184l7.21,4.163a2.279,2.279,0,0,0,2.049,0l.795-.46,5.174-2.987.795-.46a.625.625,0,0,0,0-1.184l-7.21-4.163A2.279,2.279,0,0,0,157.2,71.986Z" transform="translate(-103.259 -53.695)" fill="#513b77"></path><path id="Path_61857" data-name="Path 61857" d="M148.371,74.587a2.285,2.285,0,0,0-2.052,0l-.795.46-5.174,2.987-.795.46a.626.626,0,0,0,0,1.184l7.21,4.161a2.276,2.276,0,0,0,2.052,0l.795-.46,5.174-2.987.795-.46a.626.626,0,0,0,0-1.184Z" transform="translate(-121.788 -49.265)" fill="#513b77"></path><path id="Path_61858" data-name="Path 61858" d="M143.042,72.81l15.826,9.138a2.279,2.279,0,0,0,2.049,0l.8-.46,5.172-2.987.8-.46a.626.626,0,0,0,0-1.184l-15.826-9.135a2.262,2.262,0,0,0-2.049,0l-.8.457-5.172,2.987-.8.46A.626.626,0,0,0,143.042,72.81Z" transform="translate(-115.848 -60.964)" fill="#513b77"></path><path id="Path_61859" data-name="Path 61859" d="M178.938,94.061v7.8l-5.748-3.285a.628.628,0,0,1,0-1.192l.781-.452Z" transform="translate(-64.504 -15.677)" fill="#513b77"></path><path id="Path_61860" data-name="Path 61860" d="M181.807,85.021v7.759l-.289.165-.819.451a2.257,2.257,0,0,1-2.055,0l-7.183-4.188a.625.625,0,0,1,0-1.19l.779-.451,5.174-2.958.822-.492a2.184,2.184,0,0,1,2.011,0Z" transform="translate(-67.453 -33.034)" fill="#513b77"></path><path id="Path_61861" data-name="Path 61861" d="M174.459,90.948a2.279,2.279,0,0,0,2.049,0l.795-.46,5.174-2.987.795-.46a.625.625,0,0,0,0-1.184l-7.21-4.163a2.279,2.279,0,0,0-2.049,0l-.795.46-5.174,2.987-.795.46a.625.625,0,0,0,0,1.184Z" transform="translate(-74.615 -37.158)" fill="#513b77"></path><path id="Path_61862" data-name="Path 61862" d="M170.255,88.521a2.279,2.279,0,0,0,2.049,0l.8-.46,5.172-2.987.8-.46a.626.626,0,0,0,0-1.184l-7.21-4.163a2.285,2.285,0,0,0-2.052,0l-.795.46-5.174,2.987-.795.46a.625.625,0,0,0,0,1.184Z" transform="translate(-81.776 -41.292)" fill="#513b77"></path><path id="Path_61863" data-name="Path 61863" d="M166.05,86.094a2.285,2.285,0,0,0,2.052,0l.795-.46,5.174-2.987.795-.46a.626.626,0,0,0,0-1.184l-7.21-4.161a2.268,2.268,0,0,0-2.052,0l-.795.457-5.174,2.987-.795.46a.626.626,0,0,0,0,1.184Z" transform="translate(-88.936 -45.426)" fill="#513b77"></path><path id="Path_61864" data-name="Path 61864" d="M139.2,75.028l11.2,6.464a2.262,2.262,0,0,0,2.049,0l.795-.46,5.174-2.987.795-.46a.625.625,0,0,0,0-1.184L148.014,69.94a2.285,2.285,0,0,0-2.052,0l-.795.46-5.174,2.987-.795.457A.625.625,0,0,0,139.2,75.028Z" transform="translate(-122.399 -57.181)" fill="#513b77"></path><path id="Path_61865" data-name="Path 61865" d="M176.991,90.918V95.23l-2.709-1.563a.641.641,0,0,1,0-1.19l.819-.451Z" transform="translate(-62.597 -21.031)" fill="#513b77"></path><path id="Path_61866" data-name="Path 61866" d="M184.149,90.818v3.487l-3.982,2.257-.822.495a2.268,2.268,0,0,1-2.052,0l-7.183-4.188a.625.625,0,0,1,0-1.19l.779-.454,5.172-3,.781-.451a2.251,2.251,0,0,1,2.052,0Z" transform="translate(-69.755 -26.8)" fill="#513b77"></path><path id="Path_61867" data-name="Path 61867" d="M175.156,94.606l.795-.46,5.174-2.987.795-.457a.626.626,0,0,0,0-1.184l-7.21-4.163a2.268,2.268,0,0,0-2.052,0l-.795.46L166.689,88.8l-.795.46a.625.625,0,0,0,0,1.184l7.21,4.161A2.268,2.268,0,0,0,175.156,94.606Z" transform="translate(-76.923 -30.926)" fill="#513b77"></path><path id="Path_61868" data-name="Path 61868" d="M170.951,92.178l.795-.46,5.174-2.985.795-.46a.625.625,0,0,0,0-1.184l-7.21-4.163a2.285,2.285,0,0,0-2.052,0l-.795.46-5.172,2.987-.8.46a.626.626,0,0,0,0,1.184l7.21,4.161A2.268,2.268,0,0,0,170.951,92.178Z" transform="translate(-84.083 -35.059)" fill="#513b77"></path><path id="Path_61869" data-name="Path 61869" d="M166.747,89.752l.795-.46,5.174-2.985.795-.46a.625.625,0,0,0,0-1.184L166.3,80.5a2.262,2.262,0,0,0-2.049,0l-.8.46-5.172,2.987-.795.457a.626.626,0,0,0,0,1.184l7.213,4.163A2.262,2.262,0,0,0,166.747,89.752Z" transform="translate(-91.244 -39.195)" fill="#513b77"></path><path id="Path_61870" data-name="Path 61870" d="M162.542,87.325l.8-.46,5.172-2.985.8-.46a.626.626,0,0,0,0-1.184l-7.21-4.163a2.262,2.262,0,0,0-2.049,0l-.795.46-5.174,2.985-.795.46a.625.625,0,0,0,0,1.184l7.21,4.163A2.262,2.262,0,0,0,162.542,87.325Z" transform="translate(-98.405 -43.329)" fill="#513b77"></path><path id="Path_61871" data-name="Path 61871" d="M158.341,84.9l.795-.46,5.174-2.987.795-.46a.625.625,0,0,0,0-1.181l-7.21-4.163a2.268,2.268,0,0,0-2.052,0l-.795.46-5.174,2.985-.795.46a.625.625,0,0,0,0,1.184l7.21,4.163A2.268,2.268,0,0,0,158.341,84.9Z" transform="translate(-105.567 -47.464)" fill="#513b77"></path><path id="Path_61872" data-name="Path 61872" d="M154.136,82.471l.795-.46,5.174-2.987.795-.46a.624.624,0,0,0,0-1.181l-7.21-4.163a2.268,2.268,0,0,0-2.052,0l-.795.46-5.172,2.987-.8.457a.626.626,0,0,0,0,1.184l7.21,4.163A2.268,2.268,0,0,0,154.136,82.471Z" transform="translate(-112.727 -51.598)" fill="#513b77"></path><path id="Path_61873" data-name="Path 61873" d="M168.981,96.667l7.21,4.163a2.285,2.285,0,0,0,2.052,0l.795-.46,5.174-2.987.795-.46a.625.625,0,0,0,0-1.184l-7.21-4.163a2.285,2.285,0,0,0-2.052,0l-.795.46-5.172,2.987-.8.46A.626.626,0,0,0,168.981,96.667Z" transform="translate(-71.661 -20.325)" fill="#513b77"></path><path id="Path_61874" data-name="Path 61874" d="M164.779,94.24l7.21,4.163a2.279,2.279,0,0,0,2.049,0l.795-.46,5.174-2.987.795-.46a.625.625,0,0,0,0-1.184l-7.21-4.163a2.279,2.279,0,0,0-2.049,0l-.8.46L165.574,92.6l-.795.46A.625.625,0,0,0,164.779,94.24Z" transform="translate(-78.822 -24.459)" fill="#513b77"></path><path id="Path_61875" data-name="Path 61875" d="M160.575,91.813l7.21,4.163a2.279,2.279,0,0,0,2.049,0l.8-.46,5.172-2.987.8-.46a.626.626,0,0,0,0-1.184l-7.207-4.163a2.285,2.285,0,0,0-2.052,0l-.795.46-5.174,2.987-.795.46A.625.625,0,0,0,160.575,91.813Z" transform="translate(-85.984 -28.593)" fill="#513b77"></path><path id="Path_61876" data-name="Path 61876" d="M156.371,89.386l7.21,4.163a2.285,2.285,0,0,0,2.052,0l.795-.46L171.6,90.1l.795-.46a.626.626,0,0,0,0-1.184l-7.21-4.163a2.285,2.285,0,0,0-2.052,0l-.795.46-5.174,2.987-.795.46A.625.625,0,0,0,156.371,89.386Z" transform="translate(-93.145 -32.727)" fill="#513b77"></path><path id="Path_61877" data-name="Path 61877" d="M152.166,86.959l7.21,4.163a2.285,2.285,0,0,0,2.052,0l.795-.46,5.174-2.987.795-.46a.625.625,0,0,0,0-1.184l-7.21-4.163a2.285,2.285,0,0,0-2.052,0l-.795.46-5.172,2.987-.8.46A.626.626,0,0,0,152.166,86.959Z" transform="translate(-100.305 -36.862)" fill="#513b77"></path><path id="Path_61878" data-name="Path 61878" d="M147.964,84.532l7.21,4.163a2.279,2.279,0,0,0,2.049,0l.795-.46,5.174-2.987.795-.46a.625.625,0,0,0,0-1.184l-7.21-4.163a2.279,2.279,0,0,0-2.049,0l-.8.46-5.172,2.987-.795.46A.625.625,0,0,0,147.964,84.532Z" transform="translate(-107.466 -40.996)" fill="#513b77"></path><path id="Path_61879" data-name="Path 61879" d="M143.76,82.1l7.21,4.161a2.271,2.271,0,0,0,2.049,0l.8-.46,5.172-2.987.8-.46a.626.626,0,0,0,0-1.184l-7.207-4.163a2.285,2.285,0,0,0-2.052,0l-.795.46-5.174,2.987-.795.46A.625.625,0,0,0,143.76,82.1Z" transform="translate(-114.628 -45.13)" fill="#513b77"></path><path id="Path_61880" data-name="Path 61880" d="M135.351,77.251l7.21,4.163a2.285,2.285,0,0,0,2.052,0l.795-.46,5.174-2.987.795-.46a.625.625,0,0,0,0-1.184l-7.21-4.163a2.285,2.285,0,0,0-2.052,0l-.795.46-5.172,2.987-.8.46A.626.626,0,0,0,135.351,77.251Z" transform="translate(-128.949 -53.399)" fill="#513b77"></path><path id="Path_61881" data-name="Path 61881" d="M202.164,101.979v.492L159.509,77.84c-.573-.289-.573-.822,0-1.149l.781-.495,5.172-2.955.781-.451a2.267,2.267,0,0,1,2.052,0l33.826,19.5Z" transform="translate(-87.81 -52.33)" fill="#513b77"></path><path id="Path_61882" data-name="Path 61882" d="M155.3,75.444l7.207,4.163a2.285,2.285,0,0,0,2.052,0l.795-.46,5.174-2.987.795-.46a.625.625,0,0,0,0-1.184l-7.21-4.161a2.271,2.271,0,0,0-2.049,0l-.8.46L156.092,73.8l-.8.46A.626.626,0,0,0,155.3,75.444Z" transform="translate(-94.975 -56.477)" fill="#513b77"></path><path id="Path_61883" data-name="Path 61883" d="M151.093,73.017l7.21,4.163a2.279,2.279,0,0,0,2.049,0l.8-.46,5.172-2.987.795-.46a.625.625,0,0,0,0-1.184l-7.21-4.161a2.262,2.262,0,0,0-2.049,0l-.795.457-5.174,2.987-.795.46A.625.625,0,0,0,151.093,73.017Z" transform="translate(-102.136 -60.611)" fill="#513b77"></path><path id="Path_61884" data-name="Path 61884" d="M146.889,70.59l7.21,4.163a2.285,2.285,0,0,0,2.052,0l.795-.46,5.172-2.987.8-.46a.626.626,0,0,0,0-1.184l-7.21-4.163a2.285,2.285,0,0,0-2.052,0l-.795.46-5.174,2.987-.795.46A.625.625,0,0,0,146.889,70.59Z" transform="translate(-109.297 -64.746)" fill="#513b77"></path></g></g></g></g></g><g id="Group_39380" data-name="Group 39380" transform="translate(199.488 56.332)"><path id="Path_61885" data-name="Path 61885" d="M135.263,46.375l-8.106-4.68V40.163l8.106,4.68Z" transform="translate(-126.874 -40.163)" fill="#fff"></path><path id="Path_61886" data-name="Path 61886" d="M141.818,58.475l-12.641-7.3V49.644l12.641,7.3Z" transform="translate(-123.432 -24.011)" fill="#fff"></path><path id="Path_61887" data-name="Path 61887" d="M156.635,67.907,129.178,52.055V50.523l27.458,15.853Z" transform="translate(-123.432 -22.515)" fill="#fff"></path><path id="Path_61888" data-name="Path 61888" d="M145.762,64.444l-15.534-8.968V53.943l15.534,8.968Z" transform="translate(-121.641 -16.688)" fill="#fff"></path><path id="Path_61889" data-name="Path 61889" d="M146.918,65.111,136.264,58.96V57.428l10.654,6.151Z" transform="translate(-111.36 -10.752)" fill="#fff"></path><path id="Path_61890" data-name="Path 61890" d="M140.554,62.31l-9.356-5.4V55.377l9.356,5.4Z" transform="translate(-119.99 -14.247)" fill="#fff"></path><path id="Path_61891" data-name="Path 61891" d="M134.775,59.969l-4.678-2.7V55.736l4.678,2.7Z" transform="translate(-121.866 -13.635)" fill="#fff"></path><path id="Path_61892" data-name="Path 61892" d="M147.03,65.176l-6.355-3.669V59.975l6.355,3.669Z" transform="translate(-103.846 -6.414)" fill="#75caff"></path><path id="Path_61893" data-name="Path 61893" d="M175.472,78.783,143.136,60.114V58.582l32.336,18.669Z" transform="translate(-99.654 -8.787)" fill="#fff"></path><path id="Path_61894" data-name="Path 61894" d="M148.128,63l-8.393-4.846V56.618l8.393,4.846Z" transform="translate(-105.448 -12.132)" fill="#e34c51"></path><path id="Path_61895" data-name="Path 61895" d="M140.086,57.474l-5.044-2.912V53.03l5.044,2.912Z" transform="translate(-113.443 -18.244)" fill="#fff"></path><path id="Path_61896" data-name="Path 61896" d="M133.508,46.323l-5.32-3.071V41.719l5.32,3.071Z" transform="translate(-125.118 -37.511)" fill="#ffb"></path><path id="Path_61897" data-name="Path 61897" d="M136.326,48.831l-8.138-4.7V42.6l8.138,4.7Z" transform="translate(-125.118 -36.011)" fill="#ffb"></path><path id="Path_61898" data-name="Path 61898" d="M140.22,51.96l-12.032-6.947V43.48l12.032,6.947Z" transform="translate(-125.118 -34.511)" fill="#ffb"></path><path id="Path_61899" data-name="Path 61899" d="M136.326,50.592l-8.138-4.7V44.361l8.138,4.7Z" transform="translate(-125.118 -33.011)" fill="#ffb"></path><path id="Path_61900" data-name="Path 61900" d="M137.2,51.1l-5.6-3.236V46.329l5.6,3.236Z" transform="translate(-119.312 -29.659)" fill="#ffb"></path><path id="Path_61901" data-name="Path 61901" d="M136.167,51.381l-7.979-4.607V45.241l7.979,4.607Z" transform="translate(-125.118 -31.512)" fill="#ffb"></path><path id="Path_61902" data-name="Path 61902" d="M138.511,53.614l-10.323-5.96V46.122l10.323,5.96Z" transform="translate(-125.118 -30.012)" fill="#ffb"></path><path id="Path_61903" data-name="Path 61903" d="M135.64,53.044l-8.588-4.958V46.554l8.588,4.958Z" transform="translate(-127.052 -29.275)" fill="#75caff"></path><path id="Path_61904" data-name="Path 61904" d="M132.93,52.447l-4.854-2.8V48.113l4.854,2.8Z" transform="translate(-125.31 -26.62)" fill="#75caff"></path><path id="Path_61905" data-name="Path 61905" d="M133.194,55.329,129.2,53.022V51.49l3.995,2.306Z" transform="translate(-123.395 -20.867)" fill="#75caff"></path><path id="Path_61906" data-name="Path 61906" d="M137.674,58.789,129.2,53.9V52.364l8.475,4.893Z" transform="translate(-123.395 -19.379)" fill="#75caff"></path><path id="Path_61907" data-name="Path 61907" d="M137.674,62.809,129.2,57.916V56.383l8.475,4.893Z" transform="translate(-123.395 -12.532)" fill="#75caff"></path><path id="Path_61908" data-name="Path 61908" d="M137.674,64.938,129.2,60.044V58.512l8.475,4.893Z" transform="translate(-123.395 -8.905)" fill="#75caff"></path><path id="Path_61909" data-name="Path 61909" d="M152.274,73.366,132.594,62V60.472l19.68,11.362Z" transform="translate(-117.613 -5.567)" fill="#e79935"></path><path id="Path_61910" data-name="Path 61910" d="M148.655,69.149,136.2,61.957V60.425l12.456,7.191Z" transform="translate(-111.471 -5.647)" fill="#75caff"></path><path id="Path_61911" data-name="Path 61911" d="M147.515,68.49l-6.228-3.6V63.362l6.228,3.6Z" transform="translate(-102.804 -0.643)" fill="#e79935"></path><path id="Path_61912" data-name="Path 61912" d="M141.164,64.823l-8.475-4.893V58.4l8.475,4.893Z" transform="translate(-117.451 -9.1)" fill="#fff"></path><path id="Path_61913" data-name="Path 61913" d="M138.735,64.317l-8.475-4.893V57.892l8.475,4.893Z" transform="translate(-121.588 -9.962)" fill="#e34c51"></path><path id="Path_61914" data-name="Path 61914" d="M156.3,74.456,133.853,61.5V59.967L156.3,72.924Z" transform="translate(-115.467 -6.428)" fill="#75caff"></path><path id="Path_61915" data-name="Path 61915" d="M154.822,73.605l-12.006-6.932V65.141l12.006,6.932Z" transform="translate(-100.199 2.387)" fill="#fff"></path><path id="Path_61916" data-name="Path 61916" d="M156.453,74.546l-8.866-5.119V67.9l8.866,5.119Z" transform="translate(-92.073 7.079)" fill="#fff"></path><path id="Path_61917" data-name="Path 61917" d="M141.291,60.878l-8.475-4.893V54.452l8.475,4.893Z" transform="translate(-117.233 -15.821)" fill="#75caff"></path><path id="Path_61918" data-name="Path 61918" d="M148.869,65.252l-12.45-7.188V56.532l12.45,7.188Z" transform="translate(-111.096 -12.278)" fill="#e79935"></path><path id="Path_61919" data-name="Path 61919" d="M140.653,59.635l-9.514-5.493V52.61l9.514,5.493Z" transform="translate(-120.09 -18.959)" fill="#fff"></path><path id="Path_61920" data-name="Path 61920" d="M156.635,82.512,129.178,66.66V65.128L156.635,80.98Z" transform="translate(-123.432 2.364)" fill="#fff"></path><path id="Path_61921" data-name="Path 61921" d="M145.762,79.049l-15.534-8.968V68.548l15.534,8.968Z" transform="translate(-121.641 8.191)" fill="#fff"></path><path id="Path_61922" data-name="Path 61922" d="M146.918,79.716l-10.654-6.151V72.033l10.654,6.151Z" transform="translate(-111.36 14.127)" fill="#fff"></path><path id="Path_61923" data-name="Path 61923" d="M140.554,76.915l-9.356-5.4V69.982l9.356,5.4Z" transform="translate(-119.99 10.632)" fill="#fff"></path><path id="Path_61924" data-name="Path 61924" d="M134.775,74.574l-4.678-2.7V70.341l4.678,2.7Z" transform="translate(-121.866 11.244)" fill="#fff"></path><path id="Path_61925" data-name="Path 61925" d="M147.03,79.781l-6.355-3.669V74.58l6.355,3.669Z" transform="translate(-103.846 18.465)" fill="#75caff"></path><path id="Path_61926" data-name="Path 61926" d="M175.472,93.388,143.136,74.719V73.187l32.336,18.669Z" transform="translate(-99.654 16.092)" fill="#fff"></path><path id="Path_61927" data-name="Path 61927" d="M148.128,77.6l-8.393-4.846V71.223l8.393,4.846Z" transform="translate(-105.448 12.747)" fill="#e34c51"></path><path id="Path_61928" data-name="Path 61928" d="M133.194,69.934,129.2,67.627V66.1l3.995,2.306Z" transform="translate(-123.395 4.012)" fill="#75caff"></path><path id="Path_61929" data-name="Path 61929" d="M137.674,73.394,129.2,68.5V66.969l8.475,4.893Z" transform="translate(-123.395 5.501)" fill="#75caff"></path><path id="Path_61930" data-name="Path 61930" d="M137.674,77.414,129.2,72.521V70.989l8.475,4.893Z" transform="translate(-123.395 12.348)" fill="#75caff"></path><path id="Path_61931" data-name="Path 61931" d="M148.655,83.754,136.2,76.562V75.03l12.456,7.191Z" transform="translate(-111.471 19.232)" fill="#75caff"></path><path id="Path_61932" data-name="Path 61932" d="M147.515,83.1l-6.228-3.6V77.967l6.228,3.6Z" transform="translate(-102.804 24.236)" fill="#e79935"></path><path id="Path_61933" data-name="Path 61933" d="M141.164,79.428l-8.475-4.893V73l8.475,4.893Z" transform="translate(-117.451 15.779)" fill="#fff"></path><path id="Path_61934" data-name="Path 61934" d="M138.735,78.922l-8.475-4.893V72.5l8.475,4.893Z" transform="translate(-121.588 14.917)" fill="#e34c51"></path><path id="Path_61935" data-name="Path 61935" d="M156.3,89.061,133.853,76.1V74.572L156.3,87.529Z" transform="translate(-115.467 18.452)" fill="#75caff"></path><path id="Path_61936" data-name="Path 61936" d="M154.822,88.21l-12.006-6.932V79.746l12.006,6.932Z" transform="translate(-100.199 27.266)" fill="#fff"></path><path id="Path_61937" data-name="Path 61937" d="M156.453,89.152l-8.866-5.119V82.5l8.866,5.119Z" transform="translate(-92.073 31.958)" fill="#fff"></path><path id="Path_61938" data-name="Path 61938" d="M141.291,75.483l-8.475-4.893V69.057l8.475,4.893Z" transform="translate(-117.233 9.058)" fill="#75caff"></path><path id="Path_61939" data-name="Path 61939" d="M148.869,79.858l-12.45-7.188V71.137l12.45,7.188Z" transform="translate(-111.096 12.601)" fill="#e79935"></path><path id="Path_61940" data-name="Path 61940" d="M140.653,74.24l-9.514-5.493V67.216l9.514,5.493Z" transform="translate(-120.09 5.92)" fill="#fff"></path><path id="Path_61941" data-name="Path 61941" d="M143.586,58.6l-10.953-6.324V50.744l10.953,6.324Z" transform="translate(-117.546 -22.138)" fill="#75caff"></path><path id="Path_61942" data-name="Path 61942" d="M142.249,57.828l-5.23-3.02V53.277l5.23,3.019Z" transform="translate(-110.074 -17.824)" fill="#e79935"></path><path id="Path_61943" data-name="Path 61943" d="M135.155,53.732l-4.854-2.8V49.4l4.854,2.8Z" transform="translate(-121.52 -24.432)" fill="#e79935"></path><path id="Path_61944" data-name="Path 61944" d="M139.264,55.137l-8.588-4.958V48.647l8.588,4.958Z" transform="translate(-120.878 -25.711)" fill="#e79935"></path><path id="Path_61945" data-name="Path 61945" d="M138.922,54.939l-4.76-2.749V50.659l4.76,2.748Z" transform="translate(-114.942 -22.284)" fill="#e79935"></path><path id="Path_61946" data-name="Path 61946" d="M149.312,60.938,136.6,53.6V52.069l12.709,7.337Z" transform="translate(-110.782 -19.882)" fill="#e79935"></path><path id="Path_61947" data-name="Path 61947" d="M154.975,64.208,142.266,56.87V55.338l12.709,7.337Z" transform="translate(-101.137 -14.313)" fill="#e79935"></path><path id="Path_61948" data-name="Path 61948" d="M137.875,53.247l-5.541-3.2V48.516l5.541,3.2Z" transform="translate(-118.055 -25.934)" fill="#ffb"></path><path id="Path_61949" data-name="Path 61949" d="M141.818,71.762l-12.641-7.3V62.932l12.641,7.3Z" transform="translate(-123.432 -1.376)" fill="#fff"></path><path id="Path_61950" data-name="Path 61950" d="M156.579,81.422,129.122,65.569V64.037L156.579,79.89Z" transform="translate(-123.527 0.506)" fill="#fff"></path><path id="Path_61951" data-name="Path 61951" d="M148.072,76.51l-8.393-4.846V70.132l8.393,4.846Z" transform="translate(-105.543 10.889)" fill="#ffb"></path><path id="Path_61952" data-name="Path 61952" d="M140.086,70.762l-5.044-2.912V66.318l5.044,2.912Z" transform="translate(-113.443 4.391)" fill="#fff"></path><path id="Path_61953" data-name="Path 61953" d="M138.511,66.776l-10.323-5.96V59.284l10.323,5.96Z" transform="translate(-125.118 -7.591)" fill="#ffb"></path><path id="Path_61954" data-name="Path 61954" d="M135.64,66.206l-8.588-4.958V59.716l8.588,4.958Z" transform="translate(-127.052 -6.854)" fill="#75caff"></path><path id="Path_61955" data-name="Path 61955" d="M132.93,65.61l-4.854-2.8V61.275l4.854,2.8Z" transform="translate(-125.31 -4.2)" fill="#75caff"></path><path id="Path_61956" data-name="Path 61956" d="M143.586,71.762l-10.953-6.324V63.906l10.953,6.324Z" transform="translate(-117.546 0.283)" fill="#75caff"></path><path id="Path_61957" data-name="Path 61957" d="M142.249,70.99l-5.23-3.019V66.438l5.23,3.02Z" transform="translate(-110.074 4.597)" fill="#e79935"></path><path id="Path_61958" data-name="Path 61958" d="M135.155,66.894l-4.854-2.8V62.559l4.854,2.8Z" transform="translate(-121.52 -2.012)" fill="#e79935"></path><path id="Path_61959" data-name="Path 61959" d="M139.264,68.3l-8.588-4.958V61.809l8.588,4.958Z" transform="translate(-120.878 -3.29)" fill="#e79935"></path><path id="Path_61960" data-name="Path 61960" d="M138.922,68.1l-4.76-2.748V63.821l4.76,2.749Z" transform="translate(-114.942 0.137)" fill="#e79935"></path><path id="Path_61961" data-name="Path 61961" d="M149.312,74.1,136.6,66.763V65.231l12.709,7.337Z" transform="translate(-110.782 2.539)" fill="#e79935"></path><path id="Path_61962" data-name="Path 61962" d="M154.975,77.369l-12.709-7.337V68.5l12.709,7.337Z" transform="translate(-101.137 8.108)" fill="#e79935"></path><path id="Path_61963" data-name="Path 61963" d="M137.875,66.409l-5.541-3.2V61.678l5.541,3.2Z" transform="translate(-118.055 -3.513)" fill="#ffb"></path></g></g></svg> 